<svg class='logo-svg' id='logo-large' xmlns="http://www.w3.org/2000/svg" viewBox="0 0 213.60001 39.20002">
  <path
     style="fill:#ff9800"
     d="m 8,0 -8,29.6 24.9,0 c -4.4,0 -7.8,-1.3 -10.4,-3.9 -2.5,-2.6 -3.8,-6 -3.8,-10.3 0,-4.6 1.4,-8.3 4.2,-11.1 C 20.2836,0.1154 26.96309,-0.94026 33,1.1 l 0,6.2 C 31.1,6.2 28.9,5.6 26.5,5.6 c -2.7,0 -4.9,0.8 -6.5,2.5 -1.6,1.7 -2.5,4 -2.5,6.9 0,2.8 0.8,5 2.3,6.6 1.6,1.6 3.7,2.5 6.3,2.5 2.5,0 4.8,-0.6 6.9,-1.8 l 0,5.9 c -2.1,1 -4.8,1.5 -8.2,1.5 l 12,0 0,-20 6.2,0 0,3.7 0.1,0 c 1,-2.7 2.7,-4.1 5.3,-4.1 0.7,0 1.2,0.1 1.5,0.2 l 0,5.7 c -0.7,-0.4 -1.6,-0.6 -2.6,-0.6 -1.3,0 -2.4,0.5 -3.1,1.5 -0.8,1 -1.1,2.3 -1.1,4 l 0,9.6 19.3,0 c -3.3,0 -6,-0.9 -7.9,-2.8 -1.9,-1.9 -2.9,-4.4 -2.9,-7.6 0,-3.3 1,-5.9 3,-7.8 2,-1.9 4.7,-2.8 8,-2.8 3.3,0 5.9,0.9 7.8,2.8 1.9,1.9 2.8,4.3 2.8,7.4 0,3.3 -1,5.9 -2.9,7.9 -1.9,1.9 -4.6,2.9 -8,2.9 l 24,0 c -3.1,0 -5.6,-0.9 -7.5,-2.8 -1.9,-1.9 -2.9,-4.3 -2.9,-7.2 0,-3.4 1,-6.1 3,-8 2,-2 4.8,-2.9 8.2,-2.9 2.4,0 4.1,0.3 5.1,0.9 l 0,5.2 c -1.3,-1 -2.7,-1.4 -4.3,-1.4 -1.8,0 -3.2,0.5 -4.2,1.6 -1,1 -1.5,2.5 -1.5,4.3 0,1.8 0.5,3.2 1.5,4.2 1,1 2.4,1.5 4.1,1.5 1.5,0 3,-0.5 4.5,-1.4 l 0,5 c -1.4,0.8 -3.4,1.2 -6,1.2 l 10.1,0 0,-29.88367 z m 94.7,0 0,18.8 0.1,0 6,-9.2 7.3,0 -7.2,9.4 7.7,10.92094 1,0 L 128.4,0 102.8,0 Z M 62.5,13.4 c -1.5,0 -2.6,0.5 -3.4,1.5 -0.8,1 -1.2,2.4 -1.2,4.3 0,3.8 1.5,5.8 4.6,5.8 3,0 4.4,-2 4.4,-5.9 0,-3.7 -1.5,-5.6 -4.5,-5.6 z m 40.2,6.3 0,10.22094 6.5,0 L 102.8,19.7 Z"
     id="logo-crock" />
  <g
     transform="translate(-175,-370.19998)"
     id="logo-agile"
     style="fill:#43a047">
    <path
       d="m 321.8,400 -7.3,0 -2.1,-6.6 -10.6,0 -2.1,6.68023 -7.3,0 10.8,-29.88023 8,0 z m -11,-11.8 -3.2,-10 c -0.26667,-0.73333 -0.43333,-1.63333 -0.5,-2.7 l -0.2,0 c -0.0667,0.86667 -0.23333,1.73333 -0.5,2.6 l -3.2,10.1 z"
       />
    <path
       d="m 342.5,397.7 q 0,5.6 -3.2,8.6 -3.2,3.1 -9.3,3.1 -4,0 -6.4,-1.2 l 0,-5.2 q 3.1,1.8 6.2,1.8 3.1,0 4.8,-1.7 1.7,-1.6 1.7,-4.5 l 0,-1.6 -0.1,0 q -2.1,3.4 -6.2,3.4 -3.8,0 -6.1,-2.7 -2.2,-2.7 -2.2,-7.2 0,-5.1 2.5,-8.1 2.5,-3 6.6,-3 3.7,0 5.5,2.8 l 0.1,0 0,-2.3 6.2,0 0,17.7 z m -6.1,-7.3 0,-1.6 q 0,-1.9 -1.1,-3.2 -1.1,-1.3 -2.9,-1.3 -2.1,0 -3.2,1.6 -1.2,1.6 -1.2,4.5 0,2.5 1.1,4 1.1,1.4 3,1.4 1.9,0 3.1,-1.5 1.2,-1.5 1.2,-3.9 z"
        />
    <path
       d="m 350.8,376.8 q -1.6,0 -2.6,-0.9 -1,-0.9 -1,-2.3 0,-1.4 1,-2.3 1,-0.9 2.6,-0.9 1.6,0 2.6,0.9 1,0.9 1,2.3 0,1.4 -1,2.3 -1,0.9 -2.6,0.9 z m 3,23.2 -6.2,0 0,-20 6.2,0 0,20 z"/>
    <path
       d="m 365.3,400 -6.2,0 0,-29.6 6.2,0 0,29.6 z"/>
    <path
       d="m 388.5,391.7 -13,0 q 0.3,4.4 5.5,4.4 3.3,0 5.8,-1.6 l 0,4.5 q -2.8,1.5 -7.2,1.5 -4.8,0 -7.5,-2.7 -2.7,-2.7 -2.7,-7.5 0,-5 2.9,-7.9 2.9,-2.9 7.1,-2.9 4.4,0 6.8,2.6 2.4,2.6 2.4,7.1 l 0,2.6 z m -5.7,-3.8 q 0,-4.3 -3.5,-4.3 -1.5,0 -2.6,1.2 -1.1,1.2 -1.3,3.1 l 7.4,0 z"/>
  </g>
</svg>
