<svg
   xmlns="http://www.w3.org/2000/svg"
   viewBox="0 0 65 39.20002"
   class="logo-svg"
   id="logo-small">
  <path
     id="logo-crock"
     d="m 0.0125599,29.685939 15.2714781,0.05664 7.511719,0 c -4.4,0 -7.800391,-1.30039 -10.400391,-3.90039 -2.4999996,-2.6 -3.8007762,-5.998828 -3.8007762,-10.298828 0,-4.6 1.4011676,-8.2996036 4.2011672,-11.0996036 3.701225,-2.8769125 8.014209,-4.27526219 12.310547,-4.20507849 1.952879,0.0319021 3.902528,0.36632515 5.789062,1.00390669 l 0,6.2011718 c -1.9,-1.1 -4.1,-1.7011718 -6.5,-1.7011718 -2.7,0 -4.9,0.8 -6.5,2.4999996 -1.6,1.6999944 -2.5,4.0003848 -2.5,6.9003848 0,2.8 0.800781,4.999609 2.300781,6.599609 1.6,1.6 3.698828,2.5 6.298828,2.5 2.5,0 4.800391,-0.598828 6.900391,-1.798828 l 0,5.898438 c -1.731351,0.824453 -3.897128,1.288863 -6.5,1.433593 l 9.320312,0.03516 7.990235,-29.83593209 -33.53515,0.013214 C 5.3961183,8.4145504 2.5477581,20.259044 0.0125599,29.685939 Z"
     style="fill:#ff9800"/>
  <g
     id="logo-agile"
     transform="translate(-256.15633,-372.05698)">
    <path
       style="fill:#43a047"
       d="m 316.41463,401.79512 -7.3,0 -2.1,-6.6 -10.6,0 -2.1,6.68023 -7.3,0 10.8,-29.88023 8,0 z m -11,-11.8 -3.2,-10 c -0.26667,-0.73333 -0.43333,-1.63333 -0.5,-2.7 l -0.2,0 c -0.0667,0.86667 -0.23333,1.73333 -0.5,2.6 l -3.2,10.1 z"/>
  </g>
</svg>
